<?xml version="1.0" encoding="utf-8"?>
<!-- Generator: Adobe Illustrator 16.0.0, SVG Export Plug-In . SVG Version: 6.00 Build 0)  -->
<!DOCTYPE svg PUBLIC "-//W3C//DTD SVG 1.1//EN" "http://www.w3.org/Graphics/SVG/1.1/DTD/svg11.dtd">
<svg version="1.1" id="Layer_1" xmlns="http://www.w3.org/2000/svg" xmlns:xlink="http://www.w3.org/1999/xlink" x="0px" y="0px"
	 width="1000px" height="454px" viewBox="0 0 1000 454" enable-background="new 0 0 1000 454" xml:space="preserve">
<path fill="#F26944" d="M293.825,0h50.289l75.183,227H384l-17.759-54h-80.153l-18.091,54h-50.187L293.825,0z M356.119,140
	l-28.948-91.589L297.041,140H356.119z"/>
<path fill="#F26944" d="M217.83,227h50.167l75.001,227h-34.769l-17.716-55h-80.201l-18.046,55H142L217.83,227z M280.413,367
	l-29.317-91.369L221.239,367H280.413z"/>
<path fill="#F26944" d="M582,227H443V0h43v190h96V227z"/>
<path fill="#F26944" d="M1000,227h-39.639l-85.91-144.518c-1.326-2.212-3.404-5.757-6.391-10.733
	C866.735,69.54,865,66.105,862,61.35V227h-33V0h45.119l79.363,133.748c0.664,1.106,5.518,9.642,14.518,24.788V0h32V227z"/>
<path fill="#F26944" d="M42,358h80v-34H42v-62h101v-35H0v227h42V358z"/>
<path fill="#F26944" d="M384,454V227h88.969c14.924,0,27.306,1.648,37.15,4.743c9.841,3.097,18.354,9.613,25.539,19.453
	c7.188,9.841,10.782,21.418,10.782,34.688c0,12.494-3.65,23.371-10.946,32.6c-7.297,9.232-17.36,15.127-30.186,17.669
	c15.922,2.765,27.973,9.234,36.157,19.41c8.177,10.172,12.271,22.221,12.271,36.156c0,17.467-5.726,32.355-17.165,44.238
	C525.125,447.848,507.518,454,483.746,454H384z M423,322h50.133c10.172,0,18.215-2.928,24.129-9.008
	c5.915-6.078,8.874-13.765,8.874-23.162c0-10.394-3.373-18.286-10.116-23.21c-6.746-4.918-14.651-7.62-23.718-7.62H423V322z
	 M423,420h53.118c11.167,0,19.987-3.142,26.453-9.003c6.47-5.858,9.702-13.868,9.702-23.819c0-9.51-3.291-17.64-9.866-23.725
	c-6.581-6.077-15.287-9.453-26.123-9.453H423V420z"/>
<path fill="#F26944" d="M648,454h-41V227h41V454z"/>
<g>
	<path fill="#F26944" d="M724.695,238.705c-48.063-19.544-100.04-39.039-122.699-92.776
		c-23.475-55.671,0.868-112.815,57.925-136.872c52.385-22.088,116.044,1.058,140.659,59.44c20.683,49.04-3.05,102.04-21.48,147.267
		c48.087,19.61,100.061,39.102,122.696,92.778c23.776,56.384-0.844,112.875-57.872,136.915
		c-52.413,22.104-116.077-1.047-140.691-59.424C682.538,336.952,706.291,283.994,724.695,238.705z M740.732,200.72
		c12.958-35.932,35.983-77.64,19.754-116.148c-13.978-33.154-51.778-46.854-82.942-33.715
		c-33.832,14.265-48.318,48.482-34.633,80.94C658.854,169.604,704.223,186.405,740.732,200.72z M826.3,403.662
		c33.804-14.25,48.288-48.465,34.583-80.978c-15.938-37.802-61.318-54.609-97.768-68.877
		c-12.99,35.939-36.023,77.643-19.813,116.091C757.312,403.117,795.11,416.815,826.3,403.662z"/>
</g>
</svg>
