<?xml version="1.0" encoding="utf-8"?>
<!-- Generator: Adobe Illustrator 16.0.0, SVG Export Plug-In . SVG Version: 6.00 Build 0)  -->
<!DOCTYPE svg PUBLIC "-//W3C//DTD SVG 1.1//EN" "http://www.w3.org/Graphics/SVG/1.1/DTD/svg11.dtd">
<svg version="1.1" xmlns="http://www.w3.org/2000/svg" xmlns:xlink="http://www.w3.org/1999/xlink" x="0px" y="0px"
	 width="493.645px" height="226.707px" fill="#275176" viewBox="0 0 493.645 226.707" enable-background="new 0 0 493.645 226.707"
	 xml:space="preserve">
<g id="Layer_1">
	<path d="M139.256,0h25.146l37.595,113.282h-17.428l-8.88-26.972h-40.201l-9.046,26.972h-25.195L139.256,0z M170.903,69.345
		L156.336,23.95l-14.833,45.395H170.903z"/>
	<path d="M101.247,113.282h25.174l37.638,113.411h-17.448l-8.89-27.002H97.474l-9.056,27.002H63.194L101.247,113.282z
		 M132.653,183.322l-14.713-45.849l-14.982,45.849H132.653z"/>
	<path d="M284.706,113.335h-69.726V0.029h21.499v94.795h48.227V113.335z"/>
	<path d="M493.645,113.335h-19.84l-42.998-72.383c-0.664-1.106-1.742-2.905-3.236-5.396c-0.664-1.106-1.689-2.85-3.072-5.229v83.008
		h-16.436V0.029h22.578l39.678,66.738c0.332,0.554,2.74,4.621,7.223,12.202V0.029h16.104V113.335z"/>
	<path d="M21.001,178.927h39.846v-16.982H21.001v-30.897h50.637v-17.478H0V226.64h21.001V178.927z"/>
	<path d="M184.7,226.64V113.335h44.16c7.471,0,13.668,0.775,18.594,2.324c4.926,1.55,9.188,4.787,12.783,9.712
		c3.598,4.926,5.396,10.708,5.396,17.349c0,6.254-1.826,11.692-5.479,16.311c-3.652,4.621-8.689,7.568-15.108,8.84
		c7.97,1.385,14.001,4.621,18.097,9.713c4.094,5.092,6.143,11.123,6.143,18.096c0,8.744-2.865,16.09-8.592,22.037
		c-5.729,5.951-14.541,8.924-26.438,8.924H184.7z M204.041,160.898h24.902c5.091,0,9.116-1.521,12.077-4.564
		c2.96-3.043,4.441-6.918,4.441-11.622c0-5.201-1.688-9.033-5.063-11.497c-3.376-2.461-7.333-3.693-11.87-3.693h-24.487V160.898z
		 M204.041,209.625h26.396c5.589,0,10.003-1.467,13.239-4.4c3.238-2.932,4.856-6.889,4.856-11.869c0-4.76-1.647-8.66-4.938-11.705
		c-3.294-3.043-7.651-4.564-13.074-4.564h-26.479V209.625z"/>
	<path d="M317.713,226.64h-20.42V113.335h20.42V226.64z"/>
</g>
<g id="Layer_2">
	<g>
		<path d="M355.852,119.095c-24.056-9.783-50.071-19.54-61.412-46.436c-11.749-27.864,0.435-56.465,28.991-68.506
			c26.22-11.055,58.082,0.53,70.402,29.751c10.352,24.545-1.527,51.072-10.751,73.708c24.067,9.814,50.082,19.57,61.41,46.436
			c11.9,28.222-0.422,56.495-28.965,68.528c-26.233,11.063-58.098-0.523-70.418-29.743
			C334.751,168.269,346.64,141.763,355.852,119.095z M363.879,100.083c6.486-17.984,18.011-38.859,9.887-58.133
			c-6.996-16.594-25.916-23.451-41.514-16.875c-16.934,7.14-24.184,24.266-17.334,40.512
			C322.898,84.51,345.606,92.918,363.879,100.083z M406.707,201.658c16.92-7.133,24.169-24.257,17.309-40.53
			c-7.977-18.92-30.69-27.333-48.934-34.474c-6.502,17.986-18.03,38.862-9.916,58.105
			C372.176,201.385,391.095,208.243,406.707,201.658z"/>
	</g>
</g>
</svg>
