<?xml version="1.0" encoding="utf-8"?>
<!-- Generator: Adobe Illustrator 16.0.0, SVG Export Plug-In . SVG Version: 6.00 Build 0)  -->
<!DOCTYPE svg PUBLIC "-//W3C//DTD SVG 1.1//EN" "http://www.w3.org/Graphics/SVG/1.1/DTD/svg11.dtd">
<svg version="1.1" id="Layer_1" xmlns="http://www.w3.org/2000/svg" xmlns:xlink="http://www.w3.org/1999/xlink" x="0px" y="0px"
	 width="1000px" height="454px" viewBox="0 0 1000 454" enable-background="new 0 0 1000 454" xml:space="preserve">
<path fill="#F26944" d="M1000,227h-39.639l-85.91-144.518c-1.326-2.212-3.404-5.757-6.391-10.733
	C866.735,69.54,865,66.105,862,61.35V227h-33V0h45.119l79.363,133.748c0.664,1.106,5.518,9.642,14.518,24.788V0h32V227z"/>
<path fill="#F26944" d="M42,358h80v-34H42v-62h101v-35H0v227h42V358z"/>
<path fill="#F26944" d="M143,454h50.266l18.046-55h80.201l17.716,55h34.769l-75.001-227l18.091-54h80.153L385,227v227h99.746
	c23.771,0,41.379-6.152,52.825-18.044c11.439-11.883,17.165-26.771,17.165-44.238c0-13.936-4.094-25.984-12.271-36.156
	c-8.185-10.176-20.235-16.646-36.157-19.41c12.825-2.542,22.889-8.437,30.186-17.669c7.296-9.229,10.946-20.105,10.946-32.6
	c0-13.269-3.595-24.847-10.782-34.688c-7.185-9.84-15.698-16.355-25.539-19.453c-9.844-3.095-22.226-4.743-37.15-4.743H583v-37h-96
	V0h-43v227h-23.704L345.113,0h-50.289 M281.413,367h-59.174l29.857-91.369L281.413,367z M298.041,140l30.13-91.589L357.119,140
	H298.041z M513.273,387.178c0,9.951-3.232,17.961-9.702,23.819c-6.466,5.861-15.286,9.003-26.453,9.003H424v-66h53.284
	c10.836,0,19.542,3.376,26.123,9.453C509.982,369.538,513.273,377.668,513.273,387.178z M497.021,266.62
	c6.743,4.924,10.116,12.817,10.116,23.21c0,9.397-2.959,17.084-8.874,23.162c-5.915,6.08-13.957,9.008-24.129,9.008H424v-63h49.303
	C482.37,259,490.275,261.701,497.021,266.62z"/>
<path fill="#F26944" d="M648,454h-41V227h41V454z"/>
<g>
	<path fill="#F26944" d="M724.695,238.705c-48.063-19.544-100.04-39.039-122.699-92.776
		c-23.475-55.671,0.868-112.815,57.925-136.872c52.385-22.088,116.044,1.058,140.659,59.44c20.683,49.04-3.05,102.04-21.48,147.267
		c48.087,19.61,100.061,39.102,122.696,92.778c23.776,56.384-0.844,112.875-57.872,136.915
		c-52.413,22.104-116.077-1.047-140.691-59.424C682.538,336.952,706.291,283.994,724.695,238.705z M740.732,200.72
		c12.958-35.932,35.983-77.64,19.754-116.148c-13.978-33.154-51.778-46.854-82.942-33.715
		c-33.832,14.265-48.318,48.482-34.633,80.94C658.854,169.604,704.223,186.405,740.732,200.72z M826.3,403.662
		c33.804-14.25,48.288-48.465,34.583-80.978c-15.938-37.802-61.318-54.609-97.768-68.877
		c-12.99,35.939-36.023,77.643-19.813,116.091C757.312,403.117,795.11,416.815,826.3,403.662z"/>
</g>
</svg>
