<?xml version="1.0" encoding="utf-8"?>
<!-- Generator: Adobe Illustrator 16.0.0, SVG Export Plug-In . SVG Version: 6.00 Build 0)  -->
<!DOCTYPE svg PUBLIC "-//W3C//DTD SVG 1.1//EN" "http://www.w3.org/Graphics/SVG/1.1/DTD/svg11.dtd">
<svg version="1.1" xmlns="http://www.w3.org/2000/svg" xmlns:xlink="http://www.w3.org/1999/xlink" x="0px" y="0px"
	 width="361.728px" height="359.246px" viewBox="0 0 361.728 359.246" enable-background="new 0 0 361.728 359.246"
	 xml:space="preserve">
<g id="Layer_2">
	<g opacity="0.4">
		<path fill="#F26944" d="M199.999,199.063c-1.086,46.579-0.886,96.433-38.775,132.581c-39.254,37.453-94.99,35.23-133.37-4.999
			c-35.241-36.938-36.1-97.759,5.067-137.033c34.577-32.996,86.633-29.967,130.479-28.908c1.135-46.62,0.933-96.467,38.781-132.573
			c39.756-37.937,95.026-35.275,133.387,4.938c35.266,36.959,36.117,97.783-5.04,137.054
			C295.918,203.139,243.887,200.078,199.999,199.063z M162.999,197.708c-34.298,0.572-76.649-5.463-103.804,20.438
			c-23.378,22.303-22.834,58.404-1.867,80.376c22.761,23.856,56.102,25.113,78.991,3.278
			C162.975,276.363,162.62,232.923,162.999,197.708z M306.096,61.188c-22.737-23.838-56.076-25.091-79.005-3.222
			c-26.653,25.428-26.3,68.883-26.659,104.029c34.311-0.547,76.666,5.496,103.775-20.372
			C327.63,119.278,327.083,83.179,306.096,61.188z"/>
	</g>
</g>
<g id="Layer_1">
	<path fill="#285278" d="M64.135,0h41.769l62.444,188.162H139.4l-14.75-44.799H57.875l-15.025,44.799H1L64.135,0z M116.241,116.207
		L91.833,40.135l-24.858,76.072H116.241z"/>
	<path fill="#285278" d="M264.365,267.504h76.617v-32.651h-76.617v-59.409h97.363v-33.606H223.985v217.408h40.38V267.504z"/>
</g>
</svg>
