<svg preserveAspectRatio="xMidYMid meet" data-bbox="0 7 256 243" xmlns="http://www.w3.org/2000/svg" viewBox="0 0 256 257" height="257" width="256" data-type="ugc" role="presentation" aria-hidden="true" aria-label="">
    <g>
        <path fill="#000000" d="M0 7h85.333Zm97.524 0h12.19Zm36.571 0h24.381Zm36.572 0H256ZM0 19.15h12.19Zm73.143 0h12.19Zm36.571 0h12.191Zm60.953 0h12.19Zm73.143 0H256ZM0 31.3h12.19Zm24.381 0h36.571Zm48.762 0h12.19Zm36.571 0h12.191Zm24.381 0h12.191Zm36.572 0h12.19Zm24.381 0h36.571Zm48.762 0H256ZM0 43.45h12.19Zm24.381 0h36.571Zm48.762 0h12.19Zm24.38 0h12.191Zm73.144 0h12.19Zm24.381 0h36.571Zm48.762 0H256ZM0 55.6h12.19Zm24.381 0h36.571Zm48.762 0h12.19Zm24.38 0h12.191Zm24.382 0h12.19Zm24.381 0h12.19Zm24.381 0h12.19Zm24.381 0h36.571Zm48.762 0H256ZM0 67.75h12.19Zm73.143 0h12.19Zm24.38 0h12.191Zm24.382 0h24.381Zm48.762 0h12.19Zm73.143 0H256ZM0 79.9h85.333Zm97.524 0h12.19Zm24.381 0h12.19Zm24.381 0h12.19Zm24.381 0H256ZM97.524 92.05h24.381Zm36.571 0h24.381ZM0 104.2h12.19Zm48.762 0h12.19Zm24.38 0h36.572Zm48.763 0h24.381Zm36.571 0h60.953Zm85.334 0H256ZM0 116.35h12.19Zm24.381 0h48.762Zm73.143 0h12.19Zm36.571 0h24.381Zm85.334 0h12.19Zm24.381 0H256ZM0 128.5h24.381Zm36.571 0h12.19Zm36.572 0h24.38Zm60.952 0h12.191Zm36.572 0h73.143ZM0 140.65h12.19Zm48.762 0h12.19Zm36.571 0h48.762Zm73.143 0h24.381Zm36.572 0h24.381Zm36.571 0h12.191ZM24.381 152.8h73.143Zm85.333 0h24.381Zm36.572 0h48.762Zm85.333 0H256ZM97.524 164.95h12.19Zm48.762 0h36.571Zm48.762 0h12.19Zm24.381 0h12.19Zm24.381 0H256ZM0 177.1h85.333Zm97.524 0h24.381Zm48.762 0h24.381Zm48.762 0h24.381Zm36.571 0h12.191ZM0 189.25h12.19Zm73.143 0h12.19Zm36.571 0h12.191Zm24.381 0h24.381Zm48.762 0h24.381Zm48.762 0H256ZM0 201.4h12.19Zm24.381 0h36.571Zm48.762 0h12.19Zm24.38 0h48.763Zm73.144 0h24.381Zm48.762 0h12.19Zm24.381 0H256ZM0 213.55h12.19Zm24.381 0h36.571Zm48.762 0h12.19Zm36.571 0h12.191Zm24.381 0h24.381Zm60.953 0h12.19Zm24.381 0H256ZM0 225.7h12.19Zm24.381 0h36.571Zm48.762 0h12.19Zm60.952 0h12.191Zm36.572 0h12.19Zm24.381 0h12.19Zm24.381 0h12.19ZM0 237.85h12.19Zm73.143 0h12.19Zm36.571 0h12.191Zm48.762 0h24.381ZM0 250h85.333Zm97.524 0h12.19Zm24.381 0h12.19Zm24.381 0h60.952Zm97.524 0H256Z"></path>
        <path stroke-width="12.174" stroke="#000000" d="M0 7h85.333m12.19 0h12.191m24.381 0h24.381m12.191 0H256M0 19.15h12.19m60.953 0h12.19m24.381 0h12.191m48.762 0h12.19m60.953 0H256M0 31.3h12.19m12.191 0h36.571m12.19 0h12.191m24.381 0h12.191m12.19 0h12.191m24.381 0h12.19m12.191 0h36.571m12.191 0H256M0 43.45h12.19m12.191 0h36.571m12.19 0h12.191m12.19 0h12.191m60.953 0h12.19m12.191 0h36.571m12.191 0H256M0 55.6h12.19m12.191 0h36.571m12.19 0h12.191m12.19 0h12.191m12.191 0h12.19m12.191 0h12.19m12.191 0h12.19m12.191 0h36.571m12.191 0H256M0 67.75h12.19m60.953 0h12.19m12.19 0h12.191m12.191 0h24.381m24.381 0h12.19m60.953 0H256M0 79.9h85.333m12.19 0h12.191m12.191 0h12.19m12.191 0h12.19m12.191 0H256M97.524 92.05h24.381m12.19 0h24.381M0 104.2h12.19m36.572 0h12.19m12.19 0h36.572m12.191 0h24.381m12.19 0h60.953m24.381 0H256M0 116.35h12.19m12.191 0h48.762m24.38 0h12.191m24.381 0h24.381m60.953 0h12.19m12.191 0H256M0 128.5h24.381m12.19 0h12.19m24.382 0h24.38m36.572 0h12.191m24.381 0h73.143M0 140.65h12.19m36.572 0h12.19m24.381 0h48.762m24.381 0h24.381m12.191 0h24.381m12.19 0h12.191M24.381 152.8h73.143m12.19 0h24.381m12.191 0h48.762m36.571 0H256M97.524 164.95h12.19m36.572 0h36.571m12.191 0h12.19m12.191 0h12.19m12.191 0H256M0 177.1h85.333m12.19 0h24.382m24.381 0h24.381m24.381 0h24.381m12.19 0h12.191M0 189.25h12.19m60.953 0h12.19m24.381 0h12.191m12.19 0h24.381m24.381 0h24.381m24.381 0H256M0 201.4h12.19m12.191 0h36.571m12.19 0h12.191m12.19 0h48.763m24.381 0h24.381m24.381 0h12.19m12.191 0H256M0 213.55h12.19m12.191 0h36.571m12.19 0h12.191m24.381 0h12.191m12.19 0h24.381m36.572 0h12.19m12.191 0H256M0 225.7h12.19m12.191 0h36.571m12.19 0h12.191m48.762 0h12.191m24.381 0h12.19m12.191 0h12.19m12.191 0h12.19M0 237.85h12.19m60.953 0h12.19m24.381 0h12.191m36.571 0h24.381M0 250h85.333m12.19 0h12.191m12.191 0h12.19m12.191 0h60.952m36.572 0H256" fill="none"></path>
    </g>
</svg>